<svg width="152" height="11" viewBox="0 0 152 11" fill="none" xmlns="http://www.w3.org/2000/svg">
<path d="M0.0640001 0.661999H2.766C3.79267 0.661999 4.586 0.895333 5.146 1.362C5.762 1.88467 6.07 2.58467 6.07 3.462C6.07 4.43267 5.706 5.16533 4.978 5.66C4.698 5.856 4.35733 5.99133 3.956 6.066L6.868 10H4.6L2.108 6.248H1.884V10H0.0640001V0.661999ZM1.884 2.146V4.96H2.402C2.55133 4.96 2.696 4.95067 2.836 4.932C2.98533 4.904 3.17667 4.85267 3.41 4.778C3.64333 4.694 3.83 4.54933 3.97 4.344C4.11933 4.12933 4.194 3.86333 4.194 3.546C4.194 3.22867 4.124 2.96733 3.984 2.762C3.844 2.54733 3.65733 2.40267 3.424 2.328C3.19067 2.244 3.004 2.19267 2.864 2.174C2.724 2.15533 2.57933 2.146 2.43 2.146H1.884ZM13.2831 0.661999V2.23H9.92306V4.316H13.1431V5.884H9.92306V8.432H13.2831V10H8.10306V0.661999H13.2831ZM15.0484 0.661999H17.7644C18.343 0.661999 18.8144 0.713333 19.1784 0.816C19.5517 0.909333 19.9017 1.096 20.2284 1.376C20.863 1.936 21.1804 2.68733 21.1804 3.63C21.1804 4.50733 20.9237 5.20267 20.4104 5.716C19.8597 6.26667 19.071 6.542 18.0444 6.542H16.8684V10H15.0484V0.661999ZM16.8684 2.23V4.974H17.6104C18.1424 4.974 18.539 4.876 18.8004 4.68C19.1364 4.41867 19.3044 4.05467 19.3044 3.588C19.3044 3.13067 19.1317 2.776 18.7864 2.524C18.5064 2.328 18.077 2.23 17.4984 2.23H16.8684ZM28.0489 10L27.2229 8.04H23.4569L22.6309 10H20.6569L24.7029 0.465999H26.0749L30.0089 10H28.0489ZM24.0309 6.556H26.6909L25.3749 3.196L24.0309 6.556ZM31.0992 0.661999H32.9192V10H31.0992V0.661999ZM35.0503 0.661999H37.7523C38.779 0.661999 39.5723 0.895333 40.1323 1.362C40.7483 1.88467 41.0563 2.58467 41.0563 3.462C41.0563 4.43267 40.6923 5.16533 39.9643 5.66C39.6843 5.856 39.3437 5.99133 38.9423 6.066L41.8543 10H39.5863L37.0943 6.248H36.8703V10H35.0503V0.661999ZM36.8703 2.146V4.96H37.3883C37.5377 4.96 37.6823 4.95067 37.8223 4.932C37.9717 4.904 38.163 4.85267 38.3963 4.778C38.6297 4.694 38.8163 4.54933 38.9563 4.344C39.1057 4.12933 39.1803 3.86333 39.1803 3.546C39.1803 3.22867 39.1103 2.96733 38.9703 2.762C38.8303 2.54733 38.6437 2.40267 38.4103 2.328C38.177 2.244 37.9903 2.19267 37.8503 2.174C37.7103 2.15533 37.5657 2.146 37.4163 2.146H36.8703ZM46.357 0.661999H48.793C49.5303 0.661999 50.1743 0.727333 50.725 0.857999C51.2756 0.979333 51.789 1.21733 52.265 1.572C52.8343 2.00133 53.273 2.54267 53.581 3.196C53.8983 3.84933 54.057 4.56333 54.057 5.338C54.057 6.97133 53.4316 8.22667 52.181 9.104C51.677 9.45867 51.1636 9.69667 50.641 9.818C50.1183 9.93933 49.493 10 48.765 10H46.357V0.661999ZM48.177 2.23V8.432H48.737C49.689 8.432 50.4496 8.22667 51.019 7.816C51.383 7.55467 51.6676 7.20467 51.873 6.766C52.0783 6.318 52.181 5.842 52.181 5.338C52.181 4.84333 52.0783 4.37667 51.873 3.938C51.677 3.49 51.397 3.126 51.033 2.846C50.4823 2.43533 49.717 2.23 48.737 2.23H48.177ZM60.9159 0.661999V2.23H57.5559V4.316H60.7759V5.884H57.5559V8.432H60.9159V10H55.7359V0.661999H60.9159ZM68.2252 1.544L67.2732 2.79C66.8719 2.258 66.3632 1.992 65.7472 1.992C65.2992 1.992 64.9725 2.104 64.7672 2.328C64.5619 2.54267 64.4592 2.79467 64.4592 3.084C64.4592 3.336 64.5572 3.546 64.7532 3.714C64.9025 3.854 65.2759 4.03133 65.8732 4.246C66.7972 4.56333 67.4272 4.876 67.7632 5.184C68.2952 5.66 68.5612 6.31333 68.5612 7.144C68.5612 8.05867 68.2579 8.80067 67.6512 9.37C67.0539 9.93 66.2745 10.21 65.3132 10.21C63.9692 10.21 62.8959 9.622 62.0932 8.446L63.2832 7.312C63.4885 7.732 63.7732 8.04467 64.1372 8.25C64.5012 8.45533 64.8699 8.558 65.2432 8.558C65.6632 8.558 66.0085 8.44133 66.2792 8.208C66.5499 7.96533 66.6852 7.65267 66.6852 7.27C66.6852 6.94333 66.5639 6.66333 66.3212 6.43C66.0972 6.22467 65.6165 5.996 64.8792 5.744C64.1885 5.51067 63.6705 5.24 63.3252 4.932C62.8305 4.50267 62.5832 3.924 62.5832 3.196C62.5832 2.44 62.8399 1.796 63.3532 1.264C63.8665 0.722666 64.6085 0.451999 65.5792 0.451999C66.6339 0.451999 67.5159 0.815999 68.2252 1.544ZM70.1597 0.661999H71.9797V10H70.1597V0.661999ZM78.8429 6.57V5.002H83.1269V5.24C83.1269 6.51867 82.8422 7.56867 82.2729 8.39C81.4329 9.60333 80.1962 10.21 78.5629 10.21C77.1162 10.21 75.9355 9.762 75.0209 8.866C74.1155 7.96067 73.6629 6.78467 73.6629 5.338C73.6629 3.89133 74.1249 2.71533 75.0489 1.81C75.9822 0.904666 77.1722 0.451999 78.6189 0.451999C79.2349 0.451999 79.7949 0.535999 80.2989 0.704C80.8029 0.872 81.2135 1.096 81.5309 1.376C81.8482 1.656 82.0815 1.88933 82.2309 2.076C82.3802 2.25333 82.5109 2.44467 82.6229 2.65L81.0409 3.504C80.9662 3.38267 80.8775 3.26133 80.7749 3.14C80.6815 3.00933 80.5369 2.86 80.3409 2.692C80.1449 2.51467 79.8929 2.37467 79.5849 2.272C79.2862 2.16 78.9595 2.104 78.6049 2.104C77.6995 2.104 76.9622 2.42133 76.3929 3.056C75.8235 3.68133 75.5389 4.45133 75.5389 5.366C75.5389 6.19667 75.7955 6.93867 76.3089 7.592C76.8222 8.236 77.5829 8.558 78.5909 8.558C79.2909 8.558 79.8835 8.39467 80.3689 8.068C80.8635 7.74133 81.1575 7.242 81.2509 6.57H78.8429ZM86.6223 10H84.8023V0.451999H86.0623L91.7463 6.948V0.661999H93.5663V10.182H92.3063L86.6223 3.686V10ZM98.9663 0.661999H101.682C102.261 0.661999 102.732 0.713333 103.096 0.816C103.47 0.909333 103.82 1.096 104.146 1.376C104.781 1.936 105.098 2.68733 105.098 3.63C105.098 4.50733 104.842 5.20267 104.328 5.716C103.778 6.26667 102.989 6.542 101.962 6.542H100.786V10H98.9663V0.661999ZM100.786 2.23V4.974H101.528C102.06 4.974 102.457 4.876 102.718 4.68C103.054 4.41867 103.222 4.05467 103.222 3.588C103.222 3.13067 103.05 2.776 102.704 2.524C102.424 2.328 101.995 2.23 101.416 2.23H100.786ZM106.445 0.661999H109.147C110.174 0.661999 110.967 0.895333 111.527 1.362C112.143 1.88467 112.451 2.58467 112.451 3.462C112.451 4.43267 112.087 5.16533 111.359 5.66C111.079 5.856 110.738 5.99133 110.337 6.066L113.249 10H110.981L108.489 6.248H108.265V10H106.445V0.661999ZM108.265 2.146V4.96H108.783C108.932 4.96 109.077 4.95067 109.217 4.932C109.366 4.904 109.558 4.85267 109.791 4.778C110.024 4.694 110.211 4.54933 110.351 4.344C110.5 4.12933 110.575 3.86333 110.575 3.546C110.575 3.22867 110.505 2.96733 110.365 2.762C110.225 2.54733 110.038 2.40267 109.805 2.328C109.572 2.244 109.385 2.19267 109.245 2.174C109.105 2.15533 108.96 2.146 108.811 2.146H108.265ZM115.422 1.824C116.355 0.909333 117.555 0.451999 119.02 0.451999C120.485 0.451999 121.68 0.909333 122.604 1.824C123.537 2.73867 124.004 3.91 124.004 5.338C124.004 6.766 123.537 7.93733 122.604 8.852C121.68 9.75733 120.485 10.21 119.02 10.21C117.555 10.21 116.355 9.75733 115.422 8.852C114.498 7.93733 114.036 6.766 114.036 5.338C114.036 3.91 114.498 2.73867 115.422 1.824ZM116.78 7.662C117.359 8.25933 118.105 8.558 119.02 8.558C119.935 8.558 120.681 8.25933 121.26 7.662C121.839 7.05533 122.128 6.28067 122.128 5.338C122.128 4.39533 121.834 3.62067 121.246 3.014C120.667 2.40733 119.925 2.104 119.02 2.104C118.115 2.104 117.368 2.40733 116.78 3.014C116.201 3.62067 115.912 4.39533 115.912 5.338C115.912 6.28067 116.201 7.05533 116.78 7.662ZM127.193 0.661999H129.013V6.962C129.013 8.35267 128.649 9.29533 127.921 9.79C127.492 10.07 126.983 10.21 126.395 10.21C125.574 10.21 124.86 9.92067 124.253 9.342L125.359 8.012C125.593 8.348 125.896 8.516 126.269 8.516C126.605 8.516 126.843 8.40867 126.983 8.194C127.123 7.98867 127.193 7.48467 127.193 6.682V0.661999ZM136.316 0.661999V2.23H132.956V4.316H136.176V5.884H132.956V8.432H136.316V10H131.136V0.661999H136.316ZM144.858 7.536V9.664C144.167 10.028 143.397 10.21 142.548 10.21C141.185 10.21 140.046 9.776 139.132 8.908C138.133 7.94667 137.634 6.75667 137.634 5.338C137.634 3.826 138.133 2.608 139.132 1.684C140.009 0.862666 141.152 0.451999 142.562 0.451999C143.383 0.451999 144.148 0.643333 144.858 1.026V3.154C144.251 2.454 143.5 2.104 142.604 2.104C141.689 2.104 140.942 2.426 140.364 3.07C139.794 3.70467 139.51 4.47 139.51 5.366C139.51 6.346 139.827 7.12533 140.462 7.704C141.096 8.27333 141.834 8.558 142.674 8.558C143.551 8.558 144.279 8.21733 144.858 7.536ZM151.571 2.23H149.471V10H147.651V2.23H145.551V0.661999H151.571V2.23Z" fill="#E3B873"/>
</svg>
